<?xml version="1.0" standalone="no"?><!-- Generator: Gravit.io --><svg xmlns="http://www.w3.org/2000/svg" xmlns:xlink="http://www.w3.org/1999/xlink" style="isolation:isolate" viewBox="416 186 380 369" width="380" height="369"><defs><clipPath id="_clipPath_6prFgUU8CsHGI6EyZxPA4Tl8Zozju2iM"><rect x="416" y="186" width="380.5" height="369.5"/></clipPath></defs><g clip-path="url(#_clipPath_6prFgUU8CsHGI6EyZxPA4Tl8Zozju2iM)"><g style="isolation:isolate"><ellipse vector-effect="non-scaling-stroke" cx="605.5" cy="370" rx="189.5" ry="184" fill="rgb(250,210,1)"/><path d=" M 785.952 313.706 L 743.762 283.004 L 735.576 289.436 L 704.586 291.19 L 690.553 292.359 L 658.393 292.359 L 636.759 294.114 L 588.812 297.622 L 550.805 316.333 L 536.187 341.476 L 552.559 384.745 L 588.812 395.855 L 586.473 409.888 L 573.024 415.15 L 539.111 422.752 L 512.798 443.217 L 503.443 462.512 L 508.705 490.579 L 596.449 553.793 C 599.448 553.931 602.466 554 605.5 554 C 710.088 554 795 471.552 795 370 C 795 350.369 791.827 331.452 785.952 313.706 Z " fill-rule="evenodd" fill="rgb(200,168,1)" vector-effect="non-scaling-stroke" stroke-width="1" stroke="rgb(200,168,1)" stroke-linejoin="miter" stroke-linecap="square" stroke-miterlimit="3"/><g><path d=" M 622.391 284.715 L 622.391 284.715 L 622.391 284.715 Q 634.464 284.715 642.084 286.393 L 642.084 286.393 L 642.084 286.393 Q 649.704 288.072 649.704 293.219 L 649.704 293.219 L 649.704 293.219 Q 649.704 297.695 643.371 301.947 L 643.371 301.947 L 643.371 301.947 Q 627.735 312.688 615.562 336.746 L 615.562 336.746 L 615.562 336.746 Q 603.39 360.803 590.524 407.798 L 590.524 407.798 L 590.524 407.798 Q 602.202 407.798 608.14 408.917 L 608.14 408.917 L 606.952 417.868 L 606.952 417.868 Q 601.41 416.75 597.056 416.75 L 597.056 416.75 L 597.056 416.75 Q 592.702 416.75 587.358 417.868 L 587.358 417.868 L 587.358 417.868 Q 581.222 436.89 574.393 448.751 L 574.393 448.751 L 574.393 448.751 Q 567.565 460.612 556.877 470.906 L 556.877 470.906 L 556.877 470.906 Q 546.189 481.2 533.126 487.914 L 533.126 487.914 L 533.126 487.914 Q 520.062 494.627 510.859 494.627 L 510.859 494.627 L 510.859 494.627 Q 501.655 494.627 496.311 488.921 L 496.311 488.921 L 496.311 488.921 Q 490.967 483.214 490.967 473.815 L 490.967 473.815 L 490.967 473.815 Q 490.967 459.493 502.843 445.394 L 502.843 445.394 L 502.843 445.394 Q 514.718 431.296 534.214 421.673 L 534.214 421.673 L 534.214 421.673 Q 553.71 412.05 575.284 409.588 L 575.284 409.588 L 575.284 409.588 Q 575.68 408.693 581.42 388.329 L 581.42 388.329 L 581.42 388.329 Q 590.524 354.76 601.905 334.955 L 601.905 334.955 L 601.905 334.955 Q 613.286 315.15 629.318 302.17 L 629.318 302.17 L 629.318 302.17 Q 625.953 301.723 620.411 301.723 L 620.411 301.723 L 620.411 301.723 Q 586.17 301.723 564.2 315.821 L 564.2 315.821 L 564.2 315.821 Q 542.23 329.92 542.23 347.599 L 542.23 347.599 L 542.23 347.599 Q 542.23 359.012 548.267 368.747 L 548.267 368.747 L 548.267 368.747 Q 554.304 378.482 565.388 388.776 L 565.388 388.776 L 560.637 396.161 L 560.637 396.161 Q 528.375 376.468 528.375 346.48 L 528.375 346.48 L 528.375 346.48 Q 528.375 329.025 541.538 314.702 L 541.538 314.702 L 541.538 314.702 Q 554.7 300.38 576.175 292.548 L 576.175 292.548 L 576.175 292.548 Q 597.65 284.715 622.391 284.715 Z  M 522.438 479.41 L 522.438 479.41 Q 531.542 479.41 541.538 472.249 L 541.538 472.249 L 541.538 472.249 Q 551.533 465.088 560.341 451.213 L 560.341 451.213 L 560.341 451.213 Q 569.148 437.338 572.711 419.435 L 572.711 419.435 L 572.711 419.435 Q 546.981 422.344 529.068 436.107 L 529.068 436.107 L 529.068 436.107 Q 511.156 449.87 511.156 466.878 L 511.156 466.878 L 511.156 466.878 Q 511.156 472.696 514.125 476.053 L 514.125 476.053 L 514.125 476.053 Q 517.094 479.41 522.438 479.41 L 522.438 479.41 Z  M 703.606 299.709 L 703.606 299.709 L 675.303 299.037 L 675.303 299.037 Q 631.957 299.037 631.957 320.521 L 631.957 320.521 L 631.957 320.521 Q 631.957 326.116 635.619 329.584 L 635.619 329.584 L 635.619 329.584 Q 639.28 333.053 646.604 333.053 L 646.604 333.053 L 646.604 333.053 Q 653.927 333.053 665.802 325.444 L 665.802 325.444 L 668.771 331.263 L 668.771 331.263 Q 662.636 338.648 654.917 342.9 L 654.917 342.9 L 654.917 342.9 Q 647.197 347.152 639.478 347.152 L 639.478 347.152 L 639.478 347.152 Q 631.759 347.152 626.217 341.333 L 626.217 341.333 L 626.217 341.333 Q 620.675 335.515 620.675 326.787 L 620.675 326.787 L 620.675 326.787 Q 620.675 309.108 637.598 295.904 L 637.598 295.904 L 637.598 295.904 Q 654.521 282.701 683.418 282.701 L 683.418 282.701 L 683.418 282.701 Q 685.793 282.701 700.44 283.596 L 700.44 283.596 L 700.44 283.596 Q 715.086 284.491 723.597 284.491 L 723.597 284.491 L 723.597 284.491 Q 732.108 284.491 739.233 281.582 L 739.233 281.582 L 739.233 281.582 Q 742.004 280.687 742.598 280.687 L 742.598 280.687 L 742.598 280.687 Q 745.369 280.687 745.369 284.715 L 745.369 284.715 L 745.369 284.715 Q 745.369 290.533 736.363 295.233 L 736.363 295.233 L 736.363 295.233 Q 727.358 299.933 715.68 299.933 L 715.68 299.933 L 715.68 299.933 Q 702.617 314.255 692.819 349.949 L 692.819 349.949 L 692.819 349.949 Q 683.022 385.643 669.464 404.329 L 669.464 404.329 L 669.464 404.329 Q 655.906 423.016 637.301 423.016 L 637.301 423.016 L 637.301 423.016 Q 629.978 423.016 623.446 417.645 L 623.446 417.645 L 627.998 409.141 L 627.998 409.141 Q 630.374 410.483 633.343 411.602 L 633.343 411.602 L 636.113 412.05 L 636.113 412.05 Q 637.103 412.274 639.082 412.274 L 639.082 412.274 L 639.082 412.274 Q 648.979 412.274 656.797 401.532 L 656.797 401.532 L 656.797 401.532 Q 664.615 390.79 673.225 360.915 L 673.225 360.915 L 673.225 360.915 Q 681.835 331.039 686.684 321.304 L 686.684 321.304 L 686.684 321.304 Q 691.533 311.569 703.606 299.709 Z " fill="rgb(172,0,0)"/></g></g></g></svg>